<mxfile host="app.diagrams.net" modified="2023-06-12T20:06:01.179Z" agent="Mozilla/5.0 (Macintosh; Intel Mac OS X 10_15_7) AppleWebKit/537.36 (KHTML, like Gecko) Chrome/114.0.0.0 Safari/537.36" etag="OQ7oA53jERTMS6Y8JoLd" version="21.3.7" type="device">
  <diagram id="C5RBs43oDa-KdzZeNtuy" name="Page-1">
    <mxGraphModel dx="1674" dy="771" grid="1" gridSize="14" guides="1" tooltips="1" connect="1" arrows="1" fold="1" page="1" pageScale="1" pageWidth="1200" pageHeight="1920" math="0" shadow="0">
      <root>
        <mxCell id="WIyWlLk6GJQsqaUBKTNV-0" />
        <mxCell id="WIyWlLk6GJQsqaUBKTNV-1" parent="WIyWlLk6GJQsqaUBKTNV-0" />
        <mxCell id="5AUfYILFIpuleZz00VHe-0" value="Start" style="rounded=0;whiteSpace=wrap;html=1;" vertex="1" parent="WIyWlLk6GJQsqaUBKTNV-1">
          <mxGeometry x="340" y="140" width="120" height="60" as="geometry" />
        </mxCell>
        <mxCell id="5AUfYILFIpuleZz00VHe-1" value="" style="endArrow=classic;html=1;rounded=0;exitX=0.5;exitY=1;exitDx=0;exitDy=0;" edge="1" parent="WIyWlLk6GJQsqaUBKTNV-1" source="5AUfYILFIpuleZz00VHe-0">
          <mxGeometry width="50" height="50" relative="1" as="geometry">
            <mxPoint x="400" y="270" as="sourcePoint" />
            <mxPoint x="400" y="252" as="targetPoint" />
          </mxGeometry>
        </mxCell>
        <mxCell id="5AUfYILFIpuleZz00VHe-5" value="Generate a&lt;br&gt;random word" style="rounded=1;whiteSpace=wrap;html=1;" vertex="1" parent="WIyWlLk6GJQsqaUBKTNV-1">
          <mxGeometry x="320" y="252" width="160" height="80" as="geometry" />
        </mxCell>
        <mxCell id="5AUfYILFIpuleZz00VHe-6" value="" style="endArrow=classic;html=1;rounded=0;exitX=0.5;exitY=1;exitDx=0;exitDy=0;" edge="1" parent="WIyWlLk6GJQsqaUBKTNV-1" source="5AUfYILFIpuleZz00VHe-5">
          <mxGeometry width="50" height="50" relative="1" as="geometry">
            <mxPoint x="390" y="392" as="sourcePoint" />
            <mxPoint x="400" y="378" as="targetPoint" />
          </mxGeometry>
        </mxCell>
        <mxCell id="5AUfYILFIpuleZz00VHe-7" value="Generate as many blanks&lt;br&gt;as letters in word" style="rounded=1;whiteSpace=wrap;html=1;" vertex="1" parent="WIyWlLk6GJQsqaUBKTNV-1">
          <mxGeometry x="310" y="378" width="180" height="60" as="geometry" />
        </mxCell>
        <mxCell id="5AUfYILFIpuleZz00VHe-8" value="" style="endArrow=classic;html=1;rounded=0;exitX=0.5;exitY=1;exitDx=0;exitDy=0;" edge="1" parent="WIyWlLk6GJQsqaUBKTNV-1">
          <mxGeometry width="50" height="50" relative="1" as="geometry">
            <mxPoint x="399.5" y="438" as="sourcePoint" />
            <mxPoint x="400" y="490" as="targetPoint" />
          </mxGeometry>
        </mxCell>
        <mxCell id="5AUfYILFIpuleZz00VHe-9" value="Ask the user to guess&lt;br&gt;a letter" style="rounded=1;whiteSpace=wrap;html=1;" vertex="1" parent="WIyWlLk6GJQsqaUBKTNV-1">
          <mxGeometry x="310" y="490" width="180" height="60" as="geometry" />
        </mxCell>
        <mxCell id="5AUfYILFIpuleZz00VHe-11" value="" style="endArrow=classic;html=1;rounded=0;exitX=0.5;exitY=1;exitDx=0;exitDy=0;" edge="1" parent="WIyWlLk6GJQsqaUBKTNV-1">
          <mxGeometry width="50" height="50" relative="1" as="geometry">
            <mxPoint x="392" y="550" as="sourcePoint" />
            <mxPoint x="392.5" y="602" as="targetPoint" />
          </mxGeometry>
        </mxCell>
        <mxCell id="5AUfYILFIpuleZz00VHe-12" value="Is the guessed letter &lt;br&gt;in the word?" style="rhombus;whiteSpace=wrap;html=1;" vertex="1" parent="WIyWlLk6GJQsqaUBKTNV-1">
          <mxGeometry x="294" y="602" width="196" height="98" as="geometry" />
        </mxCell>
        <mxCell id="5AUfYILFIpuleZz00VHe-13" value="&lt;font style=&quot;font-size: 14px;&quot;&gt;No&lt;/font&gt;" style="edgeStyle=segmentEdgeStyle;endArrow=classic;html=1;curved=0;rounded=0;endSize=8;startSize=8;strokeWidth=1;jumpSize=6;" edge="1" parent="WIyWlLk6GJQsqaUBKTNV-1">
          <mxGeometry x="0.5" y="20" width="50" height="50" relative="1" as="geometry">
            <mxPoint x="490" y="652" as="sourcePoint" />
            <mxPoint x="540" y="714" as="targetPoint" />
            <mxPoint as="offset" />
          </mxGeometry>
        </mxCell>
        <mxCell id="5AUfYILFIpuleZz00VHe-14" value="Lose a life" style="rounded=1;whiteSpace=wrap;html=1;" vertex="1" parent="WIyWlLk6GJQsqaUBKTNV-1">
          <mxGeometry x="480" y="714" width="120" height="42" as="geometry" />
        </mxCell>
        <mxCell id="5AUfYILFIpuleZz00VHe-15" value="&lt;font style=&quot;font-size: 14px;&quot;&gt;Yes&lt;/font&gt;" style="edgeStyle=segmentEdgeStyle;endArrow=classic;html=1;curved=0;rounded=0;endSize=8;startSize=8;strokeWidth=1;jumpSize=6;exitX=0;exitY=0.5;exitDx=0;exitDy=0;" edge="1" parent="WIyWlLk6GJQsqaUBKTNV-1" source="5AUfYILFIpuleZz00VHe-12">
          <mxGeometry x="0.4766" y="-26" width="50" height="50" relative="1" as="geometry">
            <mxPoint x="200" y="652" as="sourcePoint" />
            <mxPoint x="250" y="714" as="targetPoint" />
            <mxPoint as="offset" />
          </mxGeometry>
        </mxCell>
        <mxCell id="5AUfYILFIpuleZz00VHe-16" value="Replace the blank&lt;br&gt;with the letter" style="rounded=1;whiteSpace=wrap;html=1;" vertex="1" parent="WIyWlLk6GJQsqaUBKTNV-1">
          <mxGeometry x="190" y="714" width="120" height="42" as="geometry" />
        </mxCell>
        <mxCell id="5AUfYILFIpuleZz00VHe-17" value="" style="endArrow=classic;html=1;rounded=0;exitX=0.5;exitY=1;exitDx=0;exitDy=0;entryX=0.5;entryY=0;entryDx=0;entryDy=0;" edge="1" parent="WIyWlLk6GJQsqaUBKTNV-1" target="5AUfYILFIpuleZz00VHe-19">
          <mxGeometry width="50" height="50" relative="1" as="geometry">
            <mxPoint x="249.5" y="756" as="sourcePoint" />
            <mxPoint x="250" y="808" as="targetPoint" />
          </mxGeometry>
        </mxCell>
        <mxCell id="5AUfYILFIpuleZz00VHe-18" value="" style="endArrow=classic;html=1;rounded=0;exitX=0.5;exitY=1;exitDx=0;exitDy=0;entryX=0.5;entryY=0;entryDx=0;entryDy=0;" edge="1" parent="WIyWlLk6GJQsqaUBKTNV-1" target="5AUfYILFIpuleZz00VHe-20">
          <mxGeometry width="50" height="50" relative="1" as="geometry">
            <mxPoint x="539.5" y="756" as="sourcePoint" />
            <mxPoint x="540" y="808" as="targetPoint" />
          </mxGeometry>
        </mxCell>
        <mxCell id="5AUfYILFIpuleZz00VHe-37" style="edgeStyle=orthogonalEdgeStyle;rounded=0;orthogonalLoop=1;jettySize=auto;html=1;exitX=0.5;exitY=1;exitDx=0;exitDy=0;" edge="1" parent="WIyWlLk6GJQsqaUBKTNV-1" source="5AUfYILFIpuleZz00VHe-19">
          <mxGeometry relative="1" as="geometry">
            <mxPoint x="392" y="994" as="targetPoint" />
          </mxGeometry>
        </mxCell>
        <mxCell id="5AUfYILFIpuleZz00VHe-39" value="&lt;font style=&quot;font-size: 14px;&quot;&gt;YES&lt;/font&gt;" style="edgeLabel;html=1;align=center;verticalAlign=middle;resizable=0;points=[];" vertex="1" connectable="0" parent="5AUfYILFIpuleZz00VHe-37">
          <mxGeometry x="-0.8322" y="2" relative="1" as="geometry">
            <mxPoint x="14" y="9" as="offset" />
          </mxGeometry>
        </mxCell>
        <mxCell id="5AUfYILFIpuleZz00VHe-44" style="edgeStyle=orthogonalEdgeStyle;rounded=0;orthogonalLoop=1;jettySize=auto;html=1;exitX=0;exitY=0.5;exitDx=0;exitDy=0;entryX=0;entryY=0.5;entryDx=0;entryDy=0;" edge="1" parent="WIyWlLk6GJQsqaUBKTNV-1" source="5AUfYILFIpuleZz00VHe-19" target="5AUfYILFIpuleZz00VHe-9">
          <mxGeometry relative="1" as="geometry">
            <mxPoint x="112" y="518" as="targetPoint" />
            <Array as="points">
              <mxPoint x="113" y="861" />
              <mxPoint x="113" y="520" />
            </Array>
          </mxGeometry>
        </mxCell>
        <mxCell id="5AUfYILFIpuleZz00VHe-45" value="&lt;font style=&quot;font-size: 14px;&quot;&gt;NO&lt;/font&gt;" style="edgeLabel;html=1;align=center;verticalAlign=middle;resizable=0;points=[];" vertex="1" connectable="0" parent="5AUfYILFIpuleZz00VHe-44">
          <mxGeometry x="-0.9171" y="2" relative="1" as="geometry">
            <mxPoint y="19" as="offset" />
          </mxGeometry>
        </mxCell>
        <mxCell id="5AUfYILFIpuleZz00VHe-19" value="Are all the &lt;br&gt;blanks filled?" style="rhombus;whiteSpace=wrap;html=1;" vertex="1" parent="WIyWlLk6GJQsqaUBKTNV-1">
          <mxGeometry x="178" y="812" width="144" height="98" as="geometry" />
        </mxCell>
        <mxCell id="5AUfYILFIpuleZz00VHe-36" style="edgeStyle=orthogonalEdgeStyle;rounded=0;orthogonalLoop=1;jettySize=auto;html=1;exitX=0.5;exitY=1;exitDx=0;exitDy=0;" edge="1" parent="WIyWlLk6GJQsqaUBKTNV-1" source="5AUfYILFIpuleZz00VHe-20">
          <mxGeometry relative="1" as="geometry">
            <mxPoint x="392" y="994" as="targetPoint" />
            <Array as="points">
              <mxPoint x="540" y="952" />
              <mxPoint x="393" y="952" />
            </Array>
          </mxGeometry>
        </mxCell>
        <mxCell id="5AUfYILFIpuleZz00VHe-41" value="&lt;font style=&quot;font-size: 14px;&quot;&gt;YES&lt;/font&gt;" style="edgeLabel;html=1;align=center;verticalAlign=middle;resizable=0;points=[];" vertex="1" connectable="0" parent="5AUfYILFIpuleZz00VHe-36">
          <mxGeometry x="-0.8095" y="-3" relative="1" as="geometry">
            <mxPoint x="-19" y="6" as="offset" />
          </mxGeometry>
        </mxCell>
        <mxCell id="5AUfYILFIpuleZz00VHe-20" value="Have they run &lt;br&gt;out of lives?" style="rhombus;whiteSpace=wrap;html=1;" vertex="1" parent="WIyWlLk6GJQsqaUBKTNV-1">
          <mxGeometry x="468" y="812" width="144" height="98" as="geometry" />
        </mxCell>
        <mxCell id="5AUfYILFIpuleZz00VHe-21" value="" style="edgeStyle=segmentEdgeStyle;endArrow=classic;html=1;curved=0;rounded=0;endSize=8;startSize=8;strokeWidth=1;jumpSize=6;exitX=1;exitY=0.5;exitDx=0;exitDy=0;entryX=1;entryY=0.5;entryDx=0;entryDy=0;" edge="1" parent="WIyWlLk6GJQsqaUBKTNV-1" source="5AUfYILFIpuleZz00VHe-20" target="5AUfYILFIpuleZz00VHe-9">
          <mxGeometry x="0.4766" y="-26" width="50" height="50" relative="1" as="geometry">
            <mxPoint x="702" y="868" as="sourcePoint" />
            <mxPoint x="658" y="532" as="targetPoint" />
            <mxPoint as="offset" />
            <Array as="points">
              <mxPoint x="672" y="861" />
              <mxPoint x="672" y="520" />
            </Array>
          </mxGeometry>
        </mxCell>
        <mxCell id="5AUfYILFIpuleZz00VHe-42" value="&lt;font style=&quot;font-size: 14px;&quot;&gt;NO&lt;/font&gt;" style="edgeLabel;html=1;align=center;verticalAlign=middle;resizable=0;points=[];" vertex="1" connectable="0" parent="5AUfYILFIpuleZz00VHe-21">
          <mxGeometry x="-0.7942" y="-4" relative="1" as="geometry">
            <mxPoint x="-46" y="21" as="offset" />
          </mxGeometry>
        </mxCell>
        <mxCell id="5AUfYILFIpuleZz00VHe-38" value="&lt;font style=&quot;font-size: 18px;&quot;&gt;GAME OVER&lt;/font&gt;" style="rounded=1;whiteSpace=wrap;html=1;" vertex="1" parent="WIyWlLk6GJQsqaUBKTNV-1">
          <mxGeometry x="280" y="994" width="224" height="80" as="geometry" />
        </mxCell>
      </root>
    </mxGraphModel>
  </diagram>
</mxfile>
